<?xml version="1.0" encoding="utf-8"?>
<!-- Generator: Adobe Illustrator 22.1.0, SVG Export Plug-In . SVG Version: 6.00 Build 0)  -->
<svg version="1.1" id="Lager_1" xmlns="http://www.w3.org/2000/svg" xmlns:xlink="http://www.w3.org/1999/xlink" x="0px" y="0px"
	 viewBox="0 0 100 100" style="enable-background:new 0 0 100 100;" xml:space="preserve">
<style type="text/css">
	.st0{fill:#435971;}
</style>
<g>
	<g>
		<path class="st0" d="M82,30H18c-3.3,0-6-2.7-6-6v0c0-3.3,2.7-6,6-6h64c3.3,0,6,2.7,6,6v0C88,27.3,85.3,30,82,30z"/>
	</g>
	<g>
		<path class="st0" d="M82,54H18c-3.3,0-6-2.7-6-6v0c0-3.3,2.7-6,6-6h64c3.3,0,6,2.7,6,6v0C88,51.3,85.3,54,82,54z"/>
	</g>
	<g>
		<path class="st0" d="M82,78H18c-3.3,0-6-2.7-6-6v0c0-3.3,2.7-6,6-6h64c3.3,0,6,2.7,6,6v0C88,75.3,85.3,78,82,78z"/>
	</g>
</g>
</svg>
